# xmcd CD database file
#
# Track frame offsets:
#	187
#	29757
#	45887
#	64740
#	84735
#	108810
#	124452
#	142015
#	152407
#	178955
#
# Disc length: 2586 seconds
#
# Revision: 0
# Processed by: cddbd v1.5.2PL0 Copyright (c) Steve Scherf et al.
# Submitted via: CDex 1.51
#
DISCID=880a180a
DTITLE=lee konitz - tenorlee
DYEAR=1977
DGENRE=Jazz
TTITLE0=I remember you
TTITLE1=skylark
TTITLE2=thanks for the memory
TTITLE3=you are too beautiful
TTITLE4=handful of stars
TTITLE5=autumn nocturne
TTITLE6=tangerine
TTITLE7=tenorlee
TTITLE8=lady be good
TTITLE9=the gypsy
EXTD=YEAR: 1977
EXTT0=
EXTT1=
EXTT2=
EXTT3=
EXTT4=
EXTT5=
EXTT6=
EXTT7=
EXTT8=
EXTT9=
PLAYORDER=
